<svg xmlns="http://www.w3.org/2000/svg" width="113.752" height="87.004" viewBox="0 0 113.752 87.004"><g transform="translate(11664 17223.529)"><path d="M-11405.65-17186.426h12.439c3.914,0,10.369-6.629,11.9-13.6s1.1-19.947,8.7-21.705,12.1,4.439,12.1,12.1-5.3,20-5.3,20h20.769s8.285.174,8.285,7.248a6.887,6.887,0,0,1-6.557,7.316s5.049,1.145,5.049,7.711-5.049,8.127-5.049,8.127,3.836,2.527,2.8,8.131-5.542,7.934-8.1,7.934h-57.037Z" transform="translate(-236.051 -0.65)" fill="#fffdff"/><path d="M-11370.746-17223.529a9.308,9.308,0,0,1,4.458,1.084,9.8,9.8,0,0,1,3.3,2.926,15.794,15.794,0,0,1,2.679,9.238,31.066,31.066,0,0,1-.849,6.543c-.445,2-1.065,4.223-1.843,6.6-.835,2.551-1.679,4.742-2.189,6.016h19.52a12.79,12.79,0,0,1,4.472,1.045,7.317,7.317,0,0,1,4.645,7.055c0,4.059-2.014,6.072-3.7,7.047a8.674,8.674,0,0,1-1.2.564c.19.135.384.289.577.457a7.811,7.811,0,0,1,1.948,2.627,10.343,10.343,0,0,1,.866,4.33,10.771,10.771,0,0,1-.862,4.385,8.613,8.613,0,0,1-1.924,2.754,8.537,8.537,0,0,1-1.6,1.209,8.412,8.412,0,0,1,.993,1.295,8.608,8.608,0,0,1,1.123,2.809,10.255,10.255,0,0,1,.008,3.963,10.806,10.806,0,0,1-3.777,6.574,8.635,8.635,0,0,1-5.163,2.055h-57.887v-44.967h13.289c1.646,0,4.027-1.5,6.214-3.9a20.591,20.591,0,0,0,4.856-9.027c.335-1.527.578-3.377.834-5.332a50.757,50.757,0,0,1,2.1-10.381,12.857,12.857,0,0,1,2.376-4.213,7.6,7.6,0,0,1,4.032-2.424A11.989,11.989,0,0,1-11370.746-17223.529Zm25.042,34.1h-22.048l.509-1.184c.013-.031,1.329-3.109,2.627-7.074,1.7-5.2,2.6-9.555,2.6-12.6a14.1,14.1,0,0,0-2.354-8.238,7.63,7.63,0,0,0-6.378-3.311,10.436,10.436,0,0,0-2.325.277c-2.323.539-4.022,2.359-5.193,5.566a49.483,49.483,0,0,0-2.007,10.018c-.261,1.994-.509,3.877-.859,5.477a22.312,22.312,0,0,1-5.257,9.8,18.019,18.019,0,0,1-3.731,3.193,7.31,7.31,0,0,1-3.742,1.271h-11.589v41.566h56.187a6.92,6.92,0,0,0,4.09-1.676,9.114,9.114,0,0,0,3.178-5.562,7.628,7.628,0,0,0-.86-5.5,6.182,6.182,0,0,0-1.577-1.771l-1.554-1,1.77-.52a6.409,6.409,0,0,0,2.244-1.457,7.868,7.868,0,0,0,2.208-5.859,7.178,7.178,0,0,0-2.235-5.678,5.672,5.672,0,0,0-2.152-1.205l.157-1.678a7.121,7.121,0,0,0,2.938-.924c1.857-1.094,2.8-2.959,2.8-5.541a5.65,5.65,0,0,0-3.641-5.5A11.176,11.176,0,0,0-11345.7-17189.428Z" transform="translate(-235.401)"/><rect width="27.768" height="59.502" rx="12" transform="translate(-11664 -17196.027)" fill="#27b2f3"/><path d="M6.8,1.7A5.106,5.106,0,0,0,1.7,6.8V52.7a5.106,5.106,0,0,0,5.1,5.1H20.967a5.106,5.106,0,0,0,5.1-5.1V6.8a5.106,5.106,0,0,0-5.1-5.1H6.8M6.8,0H20.967a6.8,6.8,0,0,1,6.8,6.8V52.7a6.8,6.8,0,0,1-6.8,6.8H6.8A6.8,6.8,0,0,1,0,52.7V6.8A6.8,6.8,0,0,1,6.8,0Z" transform="translate(-11664 -17196.027)"/><rect width="3.4" height="37.401" rx="1.7" transform="translate(-11657.767 -17184.695)"/><path d="M-11518.551-17138.934h-5.666a.85.85,0,0,1-.851-.85.851.851,0,0,1,.851-.85h5.666a.85.85,0,0,1,.851.85A.849.849,0,0,1-11518.551-17138.934Z" transform="translate(-60.201 -35.92)"/><path d="M-11516.559-17138.934h-7.658a.849.849,0,0,1-.851-.85.85.85,0,0,1,.851-.85h7.658a.85.85,0,0,1,.85.85A.849.849,0,0,1-11516.559-17138.934Z" transform="translate(-62.193 -20.053)"/><g transform="translate(-11582.435 -17214.145)"><path d="M-11303.115-17192.289a.851.851,0,0,1-.851-.852v-12.977a.85.85,0,0,1,.851-.85.85.85,0,0,1,.85.85v12.977A.851.851,0,0,1-11303.115-17192.289Z" transform="translate(11303.966 17206.969)"/><path d="M-11283.752-17191.668a.851.851,0,0,1-.442-.125.85.85,0,0,1-.282-1.168l8.312-13.6a.848.848,0,0,1,1.169-.283.85.85,0,0,1,.282,1.168l-8.312,13.6A.85.85,0,0,1-11283.752-17191.668Z" transform="translate(11295.575 17206.969)"/><path d="M-11271.55-17172.379a.849.849,0,0,1-.757-.461.85.85,0,0,1,.371-1.145l12.6-6.424a.85.85,0,0,1,1.144.371.848.848,0,0,1-.37,1.143l-12.6,6.426A.875.875,0,0,1-11271.55-17172.379Z" transform="translate(11290.288 17195.5)"/></g></g></svg>