<svg xmlns="http://www.w3.org/2000/svg" xmlns:xlink="http://www.w3.org/1999/xlink" width="73" height="76" viewBox="0 0 73 76"><defs><clipPath id="a"><rect width="73" height="76" fill="#ff8179" stroke="#707070" stroke-width="1" opacity="0.56"/></clipPath></defs><g clip-path="url(#a)"><path d="M32.669,0A9.332,9.332,0,0,1,42,9.334H23.339A9.332,9.332,0,0,1,32.669,0ZM64.082,21.834c-2.818,3.028-8.09,7.582-8.09,22.5A23.031,23.031,0,0,1,37.333,66.965V70A4.664,4.664,0,1,1,28,70V66.965A23.031,23.031,0,0,1,9.346,44.336c0-14.92-5.272-19.474-8.09-22.5A4.557,4.557,0,0,1,0,18.668,4.671,4.671,0,0,1,4.682,14H60.656a4.67,4.67,0,0,1,4.682,4.667,4.554,4.554,0,0,1-1.256,3.166Z" transform="translate(79.21 54.168) rotate(150)" fill="#ff8179"/><path d="M32.669-1.5A10.844,10.844,0,0,1,43.5,9.334v1.5H21.839v-1.5A10.844,10.844,0,0,1,32.669-1.5Zm7.686,9.334a7.83,7.83,0,0,0-15.371,0ZM4.682,12.5H60.656a6.085,6.085,0,0,1,4.471,1.906,6.313,6.313,0,0,1,1.71,4.252,6.088,6.088,0,0,1-1.658,4.2c-.18.193-.366.389-.562.6-2.837,2.983-7.125,7.491-7.125,20.884a24.59,24.59,0,0,1-1.5,8.522,24.048,24.048,0,0,1-4.162,7.172,24.66,24.66,0,0,1-6.294,5.343,25.475,25.475,0,0,1-6.7,2.783V70A6.164,6.164,0,1,1,26.5,70V68.157a25.475,25.475,0,0,1-6.7-2.783,24.66,24.66,0,0,1-6.294-5.343,24.048,24.048,0,0,1-4.162-7.172,24.59,24.59,0,0,1-1.5-8.522c0-13.394-4.288-17.9-7.125-20.884-.2-.207-.382-.4-.563-.6a6.093,6.093,0,0,1-1.658-4.2A6.318,6.318,0,0,1,.211,14.407,6.083,6.083,0,0,1,4.682,12.5ZM32.669,73.172A3.169,3.169,0,0,0,35.833,70v-4.26l1.195-.248a21.557,21.557,0,0,0,17.464-21.16c0-14.593,4.978-19.825,7.951-22.952.191-.2.371-.39.54-.572a3.053,3.053,0,0,0,.854-2.134A3.162,3.162,0,0,0,60.656,15.5H4.682A3.164,3.164,0,0,0,1.5,18.678a3.057,3.057,0,0,0,.854,2.135c.169.182.349.371.54.572,2.974,3.127,7.951,8.359,7.951,22.952A21.557,21.557,0,0,0,28.31,65.5l1.195.248V70A3.169,3.169,0,0,0,32.669,73.172Z" transform="translate(79.21 54.168) rotate(150)"/><path d="M32.669,0A9.332,9.332,0,0,1,42,9.334H23.339A9.332,9.332,0,0,1,32.669,0ZM64.082,21.834c-2.818,3.028-8.09,7.582-8.09,22.5A23.031,23.031,0,0,1,37.333,66.965V70A4.664,4.664,0,1,1,28,70V66.965A23.031,23.031,0,0,1,9.346,44.336c0-14.92-5.272-19.474-8.09-22.5A4.557,4.557,0,0,1,0,18.668,4.671,4.671,0,0,1,4.682,14H60.656a4.67,4.67,0,0,1,4.682,4.667,4.554,4.554,0,0,1-1.256,3.166Z" transform="translate(76.21 51.168) rotate(150)" fill="#ff8179"/><path d="M32.669-1.5A10.844,10.844,0,0,1,43.5,9.334v1.5H21.839v-1.5A10.844,10.844,0,0,1,32.669-1.5Zm7.686,9.334a7.83,7.83,0,0,0-15.371,0ZM4.682,12.5H60.656a6.085,6.085,0,0,1,4.471,1.906,6.313,6.313,0,0,1,1.71,4.252,6.088,6.088,0,0,1-1.658,4.2c-.18.193-.366.389-.562.6-2.837,2.983-7.125,7.491-7.125,20.884a24.59,24.59,0,0,1-1.5,8.522,24.048,24.048,0,0,1-4.162,7.172,24.66,24.66,0,0,1-6.294,5.343,25.475,25.475,0,0,1-6.7,2.783V70A6.164,6.164,0,1,1,26.5,70V68.157a25.475,25.475,0,0,1-6.7-2.783,24.66,24.66,0,0,1-6.294-5.343,24.048,24.048,0,0,1-4.162-7.172,24.59,24.59,0,0,1-1.5-8.522c0-13.394-4.288-17.9-7.125-20.884-.2-.207-.382-.4-.563-.6a6.093,6.093,0,0,1-1.658-4.2A6.318,6.318,0,0,1,.211,14.407,6.083,6.083,0,0,1,4.682,12.5ZM32.669,73.172A3.169,3.169,0,0,0,35.833,70v-4.26l1.195-.248a21.557,21.557,0,0,0,17.464-21.16c0-14.593,4.978-19.825,7.951-22.952.191-.2.371-.39.54-.572a3.053,3.053,0,0,0,.854-2.134A3.162,3.162,0,0,0,60.656,15.5H4.682A3.164,3.164,0,0,0,1.5,18.678a3.057,3.057,0,0,0,.854,2.135c.169.182.349.371.54.572,2.974,3.127,7.951,8.359,7.951,22.952A21.557,21.557,0,0,0,28.31,65.5l1.195.248V70A3.169,3.169,0,0,0,32.669,73.172Z" transform="translate(76.21 51.168) rotate(150)"/></g></svg>