<svg xmlns="http://www.w3.org/2000/svg" xmlns:xlink="http://www.w3.org/1999/xlink" width="73" height="76" viewBox="0 0 73 76"><defs><clipPath id="a"><rect width="73" height="76" transform="translate(-8414 -10267)" fill="#fff" stroke="#707070" stroke-width="1" opacity="0.56"/></clipPath></defs><g transform="translate(8414 10267)" clip-path="url(#a)"><path d="M32.669,74.672A9.332,9.332,0,0,0,42,65.338H23.339A9.332,9.332,0,0,0,32.669,74.672ZM64.082,52.838c-2.818-3.028-8.09-7.582-8.09-22.5A23.031,23.031,0,0,0,37.333,7.706V4.667a4.664,4.664,0,1,0-9.328,0V7.706A23.031,23.031,0,0,0,9.346,30.335c0,14.92-5.272,19.474-8.09,22.5A4.557,4.557,0,0,0,0,56a4.671,4.671,0,0,0,4.682,4.667H60.656A4.67,4.67,0,0,0,65.338,56a4.554,4.554,0,0,0-1.256-3.166Z" transform="translate(-8379.874 -10277.5) rotate(30)"/><path d="M32.669,76.172a10.844,10.844,0,0,1-10.83-10.834v-1.5H43.5v1.5A10.844,10.844,0,0,1,32.669,76.172Zm-7.686-9.334a7.83,7.83,0,0,0,15.371,0Zm35.673-4.667H4.682A6.083,6.083,0,0,1,.211,60.264,6.318,6.318,0,0,1-1.5,56.014a6.093,6.093,0,0,1,1.657-4.2c.181-.194.366-.389.563-.6,2.837-2.983,7.125-7.491,7.125-20.884a24.59,24.59,0,0,1,1.5-8.522,24.048,24.048,0,0,1,4.162-7.172A24.66,24.66,0,0,1,19.8,9.3a25.475,25.475,0,0,1,6.7-2.783V4.667a6.164,6.164,0,1,1,12.328,0V6.515a25.475,25.475,0,0,1,6.7,2.783,24.66,24.66,0,0,1,6.294,5.343,24.048,24.048,0,0,1,4.162,7.172,24.59,24.59,0,0,1,1.5,8.522c0,13.394,4.288,17.9,7.125,20.884.2.207.382.4.563.6a6.088,6.088,0,0,1,1.658,4.2,6.312,6.312,0,0,1-1.71,4.251A6.085,6.085,0,0,1,60.656,62.171ZM32.669,1.5A3.169,3.169,0,0,0,29.5,4.667v4.26l-1.195.248a21.557,21.557,0,0,0-17.464,21.16c0,14.593-4.978,19.825-7.951,22.952-.191.2-.371.39-.54.572A3.057,3.057,0,0,0,1.5,55.994a3.164,3.164,0,0,0,3.182,3.177H60.656a3.162,3.162,0,0,0,3.182-3.176,3.053,3.053,0,0,0-.853-2.135c-.17-.183-.35-.372-.541-.573-2.974-3.127-7.951-8.359-7.951-22.952A21.557,21.557,0,0,0,37.028,9.175l-1.195-.248V4.667A3.169,3.169,0,0,0,32.669,1.5Z" transform="translate(-8379.874 -10277.5) rotate(30)"/><path d="M32.669,74.672A9.332,9.332,0,0,0,42,65.338H23.339A9.332,9.332,0,0,0,32.669,74.672ZM64.082,52.838c-2.818-3.028-8.09-7.582-8.09-22.5A23.031,23.031,0,0,0,37.333,7.706V4.667a4.664,4.664,0,1,0-9.328,0V7.706A23.031,23.031,0,0,0,9.346,30.335c0,14.92-5.272,19.474-8.09,22.5A4.557,4.557,0,0,0,0,56a4.671,4.671,0,0,0,4.682,4.667H60.656A4.67,4.67,0,0,0,65.338,56a4.554,4.554,0,0,0-1.256-3.166Z" transform="translate(-8382.874 -10280.5) rotate(30)" fill="#5ac4ec"/><path d="M32.669,76.172a10.844,10.844,0,0,1-10.83-10.834v-1.5H43.5v1.5A10.844,10.844,0,0,1,32.669,76.172Zm-7.686-9.334a7.83,7.83,0,0,0,15.371,0Zm35.673-4.667H4.682A6.083,6.083,0,0,1,.211,60.264,6.318,6.318,0,0,1-1.5,56.014a6.093,6.093,0,0,1,1.657-4.2c.181-.194.366-.389.563-.6,2.837-2.983,7.125-7.491,7.125-20.884a24.59,24.59,0,0,1,1.5-8.522,24.048,24.048,0,0,1,4.162-7.172A24.66,24.66,0,0,1,19.8,9.3a25.475,25.475,0,0,1,6.7-2.783V4.667a6.164,6.164,0,1,1,12.328,0V6.515a25.475,25.475,0,0,1,6.7,2.783,24.66,24.66,0,0,1,6.294,5.343,24.048,24.048,0,0,1,4.162,7.172,24.59,24.59,0,0,1,1.5,8.522c0,13.394,4.288,17.9,7.125,20.884.2.207.382.4.563.6a6.088,6.088,0,0,1,1.658,4.2,6.312,6.312,0,0,1-1.71,4.251A6.085,6.085,0,0,1,60.656,62.171ZM32.669,1.5A3.169,3.169,0,0,0,29.5,4.667v4.26l-1.195.248a21.557,21.557,0,0,0-17.464,21.16c0,14.593-4.978,19.825-7.951,22.952-.191.2-.371.39-.54.572A3.057,3.057,0,0,0,1.5,55.994a3.164,3.164,0,0,0,3.182,3.177H60.656a3.162,3.162,0,0,0,3.182-3.176,3.053,3.053,0,0,0-.853-2.135c-.17-.183-.35-.372-.541-.573-2.974-3.127-7.951-8.359-7.951-22.952A21.557,21.557,0,0,0,37.028,9.175l-1.195-.248V4.667A3.169,3.169,0,0,0,32.669,1.5Z" transform="translate(-8382.874 -10280.5) rotate(30)"/></g></svg>