<svg xmlns="http://www.w3.org/2000/svg" width="24.002" height="24" viewBox="0 0 24.002 24"><g transform="translate(-1242.999 -1005)"><path d="M10167,3114.5a1.5,1.5,0,0,0,1.5-1.5v-12a1.5,1.5,0,0,0-1.5-1.5h-4.5V3095a1.5,1.5,0,0,0-1.5-1.5h-12a1.5,1.5,0,0,0-1.5,1.5v12a1.5,1.5,0,0,0,1.5,1.5h4.5v4.5a1.5,1.5,0,0,0,1.5,1.5h12m0,1.5h-12a3,3,0,0,1-3-3v-3h-3a3,3,0,0,1-3-3v-12a3,3,0,0,1,3-3h12a3,3,0,0,1,3,3v3h3a3,3,0,0,1,3,3v12A3,3,0,0,1,10167,3116Z" transform="translate(-8903 -2087)" fill="#141b18"/><path d="M3,1.5A1.5,1.5,0,0,0,1.5,3V15A1.5,1.5,0,0,0,3,16.5H15A1.5,1.5,0,0,0,16.5,15V3A1.5,1.5,0,0,0,15,1.5H3M3,0H15a3,3,0,0,1,3,3V15a3,3,0,0,1-3,3H3a3,3,0,0,1-3-3V3A3,3,0,0,1,3,0Z" transform="translate(1249 1011)" fill="#141b18"/></g></svg>