<svg xmlns="http://www.w3.org/2000/svg" width="536" height="129.174" viewBox="0 0 536 129.174"><g transform="translate(-140 -3377.913)"><g transform="translate(12661.5 17291.566)"><path d="M536,1.5H0v-3H536Z" transform="translate(-12521.5 -13834.5)"/></g><g transform="translate(-1148.069 -6.952) rotate(-17)"><path d="M52.128,11.531a8,8,0,0,1,13.744,0L110.792,86.9A8,8,0,0,1,103.919,99H14.081A8,8,0,0,1,7.208,86.9Z" transform="translate(336.399 3678.449)" fill="#fff"/><path d="M59,10.627a4.958,4.958,0,0,0-4.3,2.44L9.786,88.44a5,5,0,0,0,4.3,7.56h89.839a5,5,0,0,0,4.3-7.56L63.3,13.067a4.958,4.958,0,0,0-4.3-2.44m0-3a7.929,7.929,0,0,1,6.872,3.9L110.792,86.9A8,8,0,0,1,103.919,99H14.081A8,8,0,0,1,7.208,86.9L52.128,11.531A7.929,7.929,0,0,1,59,7.627Z" transform="translate(336.399 3678.449)"/><path d="M6.395-14.4H16.906v7.014L15.1,14.1l-6.951.026L6.395-7.391ZM5.547,24.487v-5.8H17.7v5.8Z" transform="translate(383.778 3734.512)"/></g></g></svg>