<svg xmlns="http://www.w3.org/2000/svg" xmlns:xlink="http://www.w3.org/1999/xlink" width="919.153" height="614.739" viewBox="0 0 919.153 614.739"><defs><clipPath id="a"><rect width="143.864" height="164.126" fill="none"/></clipPath><clipPath id="b"><path d="M42.208,34.518a29.377,29.377,0,0,0,3.607,14.141c-.11.072-.227.135-.336.208A46.7,46.7,0,0,0,24.945,94.608a20.845,20.845,0,1,0,20.811,33.048A47.26,47.26,0,0,0,97.707,48.693c-.023-.015-.047-.027-.068-.042A29.517,29.517,0,1,0,42.208,34.518" transform="translate(-8.358 -5.003)" fill="none"/></clipPath><clipPath id="d"><rect width="139.942" height="116.24" fill="none"/></clipPath><clipPath id="e"><path d="M41.407,45.251c0,1.255.076,2.492.188,3.718a15.045,15.045,0,1,0,13.656,26.61A40.216,40.216,0,1,0,41.407,45.251" transform="translate(-31.913 -5.002)" fill="none"/></clipPath></defs><g transform="translate(-644.493 -1026.501)"><g transform="translate(644.493 1026.501)"><g transform="translate(0 0)"><g clip-path="url(#a)"><path d="M97.707,48.693c-.022-.015-.046-.027-.068-.042a29.516,29.516,0,1,0-51.824.008c-.11.072-.227.135-.336.208a46.7,46.7,0,0,0-20.534,45.74,20.845,20.845,0,1,0,20.811,33.048A47.26,47.26,0,0,0,97.707,48.693" transform="translate(-3.817 -2.284)" fill="#fff"/></g></g><g transform="translate(4.54 2.718)"><g clip-path="url(#b)"><path d="M91.85,87.065s10.94,8.463,5.367,26.832c-4.492,14.807-17.957,12.8-24.562,9.082s-17.957-7.431-20.641,1.651c-2.952,9.992,17.131,18.989,13.416,27.658-5.984,13.962-21.26,7.018-25.388,4.541s-8.669,1.239-12.384,6.192S0,177.47,0,177.47l118.476,26.419,25.388-88.34Z" transform="translate(-4.541 -42.482)" fill="#e6e7e8"/><path d="M137.3,16.4s8.05,4.747,5.986,23.53c-1.11,10.1-9.289,15.274-16.513,17.338s-12.8,1.651-11.146,5.572,24.562,0,24.562,0,10.114-7.431,14.242-15.48-1.651-29.722-1.651-29.722Z" transform="translate(-57.217 -10.208)" fill="#e6e7e8"/></g></g><g transform="translate(0 0)"><g clip-path="url(#a)"><path d="M26.92,211.708a23.567,23.567,0,0,1-5.357-46.517,2.718,2.718,0,0,1,1.231,5.294A18.131,18.131,0,1,0,41.285,199.2a2.718,2.718,0,0,1,4.3,3.32A23.418,23.418,0,0,1,26.92,211.708Z" transform="translate(-1.533 -75.412)"/><path d="M72.185,86.887A2.718,2.718,0,0,1,70.6,81.958q.74-.529,1.5-1.031a2.718,2.718,0,1,1,3,4.535q-.677.448-1.337.919A2.706,2.706,0,0,1,72.185,86.887Z" transform="translate(-31.726 -36.754)"/><path d="M38.2,141.39a2.719,2.719,0,0,1-2.573-1.845A50.051,50.051,0,0,1,53.944,82.778,2.718,2.718,0,1,1,57.1,87.2a44.615,44.615,0,0,0-16.327,50.6A2.72,2.72,0,0,1,38.2,141.39Z" transform="translate(-15.067 -37.574)"/><path d="M94.554,172.518a49.649,49.649,0,0,1-35.417-14.713,2.718,2.718,0,0,1,3.851-3.836,44.551,44.551,0,1,0,55.893-68.762,2.718,2.718,0,1,1,2.972-4.551,49.989,49.989,0,0,1-27.3,91.861Z" transform="translate(-26.647 -36.635)"/><path d="M78.907,57.55a2.707,2.707,0,0,1-1.748-.638,32.234,32.234,0,1,1,42.61-1,2.718,2.718,0,1,1-3.689-3.992,26.8,26.8,0,1,0-35.422.834,2.718,2.718,0,0,1-1.751,4.8Z" transform="translate(-29.989 0)"/></g></g></g><g transform="translate(1423.703 1525)"><g transform="translate(0 0)"><g clip-path="url(#d)"><path d="M81.656,5A40.249,40.249,0,0,0,41.407,45.251c0,1.256.076,2.493.188,3.719a15.045,15.045,0,1,0,13.656,26.61A40.234,40.234,0,1,0,81.656,5" transform="translate(-14.575 -2.284)" fill="#fff"/></g></g><g transform="translate(17.338 2.718)"><g clip-path="url(#e)"><path d="M26.007,47.721s-8.569,13.874-1.238,20.641c8.049,7.431,22.7-5.573,22.7-5.573s16.445,15.221,25.594,8.05c7.637-5.986.24-10.82,7.018-15.274,7.225-4.747,9.885,4.791,15.48,4.334,10.114-.826,17.751-29.516,14.036-48.092s30.341,108.982,30.341,108.982L22.292,113.77,0,60.518Z" transform="translate(-17.338 -7.265)" fill="#e6e7e8"/></g></g><g transform="translate(0 0)"><g clip-path="url(#d)"><path d="M87.354,85.933A42.992,42.992,0,0,1,59.6,75.766a2.718,2.718,0,0,1,3.513-4.148A37.532,37.532,0,1,0,49.823,42.966q0,1.163.069,2.308a2.718,2.718,0,0,1-5.426.328q-.079-1.308-.079-2.637A42.966,42.966,0,1,1,87.354,85.933Z" transform="translate(-20.272 0)"/><path d="M44.7,114.593a17.785,17.785,0,1,1,2.8-35.351,2.718,2.718,0,1,1-.851,5.368A12.336,12.336,0,1,0,56.942,95.2a2.718,2.718,0,1,1,5.39-.7A17.8,17.8,0,0,1,44.7,114.593Z" transform="translate(-12.29 -36.091)"/></g></g></g></g></svg>