<svg xmlns="http://www.w3.org/2000/svg" xmlns:xlink="http://www.w3.org/1999/xlink" width="26" height="26" viewBox="0 0 26 26"><defs><clipPath id="a"><rect width="26" height="26" transform="translate(-8819 -14716)" fill="#fff" stroke="#707070" stroke-width="1"/></clipPath></defs><g transform="translate(8819 14716)" clip-path="url(#a)"><path d="M23.256,8.627c.016.23.016.461.016.691A15.011,15.011,0,0,1,8.158,24.433,15.012,15.012,0,0,1,0,22.048a10.99,10.99,0,0,0,1.283.066,10.639,10.639,0,0,0,6.6-2.27A5.322,5.322,0,0,1,2.911,16.16a6.7,6.7,0,0,0,1,.082,5.619,5.619,0,0,0,1.4-.181,5.313,5.313,0,0,1-4.26-5.214v-.066a5.35,5.35,0,0,0,2.4.674,5.32,5.32,0,0,1-1.645-7.1A15.1,15.1,0,0,0,12.763,9.91a6,6,0,0,1-.132-1.217,5.317,5.317,0,0,1,9.194-3.635A10.459,10.459,0,0,0,25.2,3.775,5.3,5.3,0,0,1,22.861,6.7a10.65,10.65,0,0,0,3.059-.822,11.419,11.419,0,0,1-2.664,2.747Z" transform="translate(-8819 -14716.381)"/></g></svg>